<svg width="41" height="42" viewBox="0 0 41 42" fill="none" xmlns="http://www.w3.org/2000/svg">
<path d="M35.073 31.5438H12.5261C11.8617 31.5438 11.2245 31.2725 10.7546 30.7895C10.2848 30.3066 10.0209 29.6517 10.0209 28.9688V12.2313C10.0209 11.5483 10.2848 10.8934 10.7546 10.4105C11.2245 9.92754 11.8617 9.65625 12.5261 9.65625H35.073C35.7374 9.65625 36.3746 9.92754 36.8444 10.4105C37.3142 10.8934 37.5782 11.5483 37.5782 12.2313V28.9688C37.5782 29.6517 37.3142 30.3066 36.8444 30.7895C36.3746 31.2725 35.7374 31.5438 35.073 31.5438ZM12.5261 12.2313V28.9688H35.073V12.2313H12.5261Z" fill="#2B2B2B"/>
<path d="M23.7995 22.5313C23.565 22.532 23.335 22.4651 23.1356 22.3381L13.1148 15.9006C12.975 15.811 12.8537 15.694 12.7579 15.5562C12.6621 15.4184 12.5936 15.2626 12.5564 15.0976C12.5191 14.9326 12.5139 14.7617 12.5409 14.5946C12.568 14.4276 12.6268 14.2676 12.7139 14.1239C12.8011 13.9802 12.915 13.8555 13.049 13.757C13.1831 13.6585 13.3347 13.5882 13.4952 13.5499C13.6557 13.5117 13.822 13.5063 13.9846 13.5341C14.1471 13.5618 14.3027 13.6223 14.4425 13.7119L23.7995 19.7245L33.1564 13.7119C33.4388 13.5309 33.7796 13.4726 34.1038 13.5499C34.4279 13.6272 34.709 13.8336 34.885 14.1239C35.0611 14.4141 35.1178 14.7644 35.0426 15.0976C34.9675 15.4308 34.7666 15.7197 34.4842 15.9006L24.4634 22.3381C24.264 22.4651 24.034 22.532 23.7995 22.5313Z" fill="#2B2B2B"/>
<path d="M7.51566 21.8875H3.75785C3.42564 21.8875 3.10704 21.7519 2.87213 21.5104C2.63722 21.2689 2.50525 20.9415 2.50525 20.6C2.50525 20.2585 2.63722 19.9311 2.87213 19.6896C3.10704 19.4481 3.42564 19.3125 3.75785 19.3125H7.51566C7.84788 19.3125 8.16648 19.4481 8.40139 19.6896C8.6363 19.9311 8.76827 20.2585 8.76827 20.6C8.76827 20.9415 8.6363 21.2689 8.40139 21.5104C8.16648 21.7519 7.84788 21.8875 7.51566 21.8875Z" fill="#2B2B2B"/>
<path d="M7.51566 14.1625H3.75785C3.42564 14.1625 3.10704 14.0268 2.87213 13.7854C2.63722 13.5439 2.50525 13.2165 2.50525 12.875C2.50525 12.5335 2.63722 12.206 2.87213 11.9646C3.10704 11.7231 3.42564 11.5875 3.75785 11.5875H7.51566C7.84788 11.5875 8.16648 11.7231 8.40139 11.9646C8.6363 12.206 8.76827 12.5335 8.76827 12.875C8.76827 13.2165 8.6363 13.5439 8.40139 13.7854C8.16648 14.0268 7.84788 14.1625 7.51566 14.1625Z" fill="#2B2B2B"/>
<path d="M7.51566 29.6125H3.75785C3.42564 29.6125 3.10704 29.4769 2.87213 29.2354C2.63722 28.994 2.50525 28.6665 2.50525 28.325C2.50525 27.9835 2.63722 27.6561 2.87213 27.4146C3.10704 27.1732 3.42564 27.0375 3.75785 27.0375H7.51566C7.84788 27.0375 8.16648 27.1732 8.40139 27.4146C8.6363 27.6561 8.76827 27.9835 8.76827 28.325C8.76827 28.6665 8.6363 28.994 8.40139 29.2354C8.16648 29.4769 7.84788 29.6125 7.51566 29.6125Z" fill="#2B2B2B"/>
</svg>
