<svg width="17" height="30" viewBox="0 0 17 30" fill="none" xmlns="http://www.w3.org/2000/svg">
<g clip-path="url(#clip0_8_45)">
<path d="M15.8989 0.006242L12.0802 0C7.78995 0 5.01742 2.89785 5.01742 7.38304V10.7871H1.17785C0.846068 10.7871 0.577393 11.0611 0.577393 11.3991V16.3313C0.577393 16.6692 0.846374 16.943 1.17785 16.943H5.01742V29.3883C5.01742 29.7263 5.28609 30 5.61788 30H10.6274C10.9592 30 11.2279 29.7259 11.2279 29.3883V16.943H15.7172C16.049 16.943 16.3177 16.6692 16.3177 16.3313L16.3196 11.3991C16.3196 11.2369 16.2561 11.0814 16.1437 10.9666C16.0313 10.8517 15.8781 10.7871 15.7187 10.7871H11.2279V7.90144C11.2279 6.51446 11.5523 5.81037 13.3258 5.81037L15.8983 5.80943C16.2298 5.80943 16.4985 5.53541 16.4985 5.19772V0.617958C16.4985 0.280578 16.2301 0.0068662 15.8989 0.006242Z" fill="#2B2B2B"/>
</g>
<defs>
<clipPath id="clip0_8_45">
<rect width="16.5" height="30" fill="#2B2B2B"/>
</clipPath>
</defs>
</svg>
