<svg width="24" height="32" viewBox="0 0 24 32" fill="none" xmlns="http://www.w3.org/2000/svg">
<path d="M24 20.61C24 26.9 18.625 32 12 32C5.375 32 0 26.9 0 20.61C0 13.895 7.89 3.77002 10.875 0.185024C10.938 0.0977127 11.0275 0.0330617 11.1301 0.000685329C11.2328 -0.0316911 11.3432 -0.0300636 11.4449 0.00532588C11.5465 0.0407153 11.6341 0.107976 11.6945 0.197107C11.7548 0.286237 11.7848 0.392476 11.78 0.500024C11.525 3.50002 11.7 9.92002 17.07 13.12C17.1774 13.1928 17.309 13.221 17.4368 13.1986C17.5646 13.1762 17.6787 13.105 17.755 13C18.428 12.0085 18.8171 10.8518 18.88 9.65502C18.8859 9.54511 18.9278 9.4402 18.9994 9.35656C19.0709 9.27293 19.1681 9.21524 19.2758 9.19245C19.3834 9.16966 19.4956 9.18304 19.5949 9.23052C19.6943 9.27799 19.7751 9.35691 19.825 9.45502C22.11 13.215 24 17.32 24 20.61Z" fill="#FF7F00"/>
<path d="M4.5 24.88C4.5 28.815 7.86 32 12 32C16.14 32 19.5 28.815 19.5 24.88C19.5 20.945 15.155 15.125 13.08 12.575C13.0178 12.4853 12.928 12.4184 12.8243 12.3846C12.7206 12.3507 12.6086 12.3517 12.5055 12.3874C12.4024 12.4231 12.3138 12.4915 12.2532 12.5822C12.1927 12.673 12.1634 12.7811 12.17 12.89C12.245 14.89 11.895 18.275 8.995 20.115C8.93866 20.1523 8.87535 20.1778 8.80889 20.1899C8.74243 20.2021 8.67419 20.2006 8.6083 20.1857C8.54241 20.1707 8.48023 20.1426 8.42552 20.1029C8.37082 20.0633 8.32471 20.013 8.29 19.955C8.03796 19.5234 7.86841 19.0486 7.79 18.555C7.77859 18.4463 7.73192 18.3444 7.65712 18.2648C7.58231 18.1852 7.4835 18.1323 7.37577 18.1141C7.26805 18.096 7.15735 18.1136 7.0606 18.1643C6.96384 18.2151 6.88636 18.2961 6.84 18.395C5.525 20.61 4.5 22.965 4.5 24.88Z" fill="#FFDA00"/>
<path d="M16.125 28.085C16.114 28.6138 15.9983 29.1352 15.7845 29.6189C15.5707 30.1027 15.2631 30.5392 14.8795 30.9033C14.4959 31.2674 14.0438 31.5518 13.5496 31.7401C13.0553 31.9283 12.5286 32.0167 12 32C11.4714 32.0167 10.9447 31.9283 10.4504 31.7401C9.95617 31.5518 9.50415 31.2674 9.12053 30.9033C8.73691 30.5392 8.4293 30.1027 8.2155 29.6189C8.00171 29.1352 7.88598 28.6138 7.875 28.085C7.875 26.15 9.775 23.4 11 21.83C11.0598 21.7441 11.1451 21.6791 11.2438 21.6442C11.3425 21.6093 11.4497 21.6063 11.5502 21.6355C11.6507 21.6648 11.7395 21.7249 11.8041 21.8073C11.8687 21.8898 11.9057 21.9904 11.91 22.095C11.9119 22.704 12.0472 23.3052 12.3063 23.8563C12.5655 24.4074 12.9422 24.8951 13.41 25.285C13.4711 25.3376 13.5441 25.3747 13.6226 25.393C13.7012 25.4114 13.783 25.4104 13.8611 25.3903C13.9392 25.3701 14.0112 25.3314 14.0711 25.2774C14.131 25.2234 14.1769 25.1556 14.205 25.08C14.2349 24.9858 14.292 24.9026 14.3691 24.8409C14.4462 24.7791 14.5399 24.7416 14.6383 24.733C14.7367 24.7245 14.8355 24.7453 14.9221 24.7928C15.0087 24.8403 15.0793 24.9124 15.125 25C15.694 25.9364 16.0365 26.9928 16.125 28.085Z" fill="white"/>
</svg>
