<svg width="30" height="28" viewBox="0 0 30 28" fill="none" xmlns="http://www.w3.org/2000/svg">
<g clip-path="url(#clip0_8_47)">
<path d="M27.9734 8.01825C27.9091 6.56915 27.6727 5.57291 27.3343 4.70965C26.9851 3.79331 26.4479 2.97292 25.744 2.29094C25.0564 1.59832 24.2237 1.06014 23.3104 0.719246C22.4349 0.383555 21.4356 0.149219 19.9745 0.0853271C18.5023 0.0160249 18.0351 0 14.3014 0C10.5677 0 10.1004 0.0160249 8.63377 0.0799162C7.1726 0.143808 6.16805 0.378353 5.2978 0.713835C4.37363 1.06014 3.5464 1.59292 2.85873 2.29094C2.16035 2.97292 1.61789 3.79872 1.27394 4.70444C0.935458 5.57291 0.699168 6.56374 0.634744 8.01285C0.564864 9.47277 0.548706 9.93624 0.548706 13.6391C0.548706 17.3418 0.564865 17.8053 0.629288 19.2599C0.693712 20.7089 0.930212 21.7051 1.2687 22.5685C1.61789 23.4847 2.16035 24.3052 2.85873 24.9871C3.5464 25.6797 4.37908 26.218 5.29234 26.5589C6.16805 26.8945 7.16714 27.1289 8.62853 27.1927C10.095 27.2568 10.5625 27.2726 14.2962 27.2726C18.0297 27.2726 18.4971 27.2568 19.9638 27.1927C21.4248 27.1289 22.4294 26.8945 23.2997 26.5589C25.1478 25.8502 26.609 24.401 27.3236 22.5685C27.6618 21.7 27.8983 20.7089 27.9627 19.2599C28.0272 17.8053 28.0433 17.3418 28.0433 13.6391C28.0433 9.93624 28.0379 9.47277 27.9734 8.01825ZM25.497 19.1532C25.4379 20.4852 25.2123 21.2044 25.0242 21.6839C24.5622 22.872 23.6114 23.815 22.4133 24.2733C21.9297 24.4598 21.1993 24.6835 19.8615 24.742C18.4111 24.806 17.9761 24.8219 14.3069 24.8219C10.6376 24.8219 10.1971 24.806 8.75192 24.742C7.40887 24.6835 6.68364 24.4598 6.20015 24.2733C5.60397 24.0548 5.0613 23.7085 4.62083 23.2556C4.16419 22.8134 3.81501 22.2806 3.59467 21.6893C3.40664 21.2099 3.18105 20.4852 3.12208 19.1587C3.05745 17.7202 3.0415 17.2886 3.0415 13.6496C3.0415 10.0108 3.05745 9.57391 3.12208 8.14084C3.18105 6.8089 3.40664 6.08966 3.59467 5.61016C3.81501 5.0187 4.16419 4.48072 4.62629 4.04367C5.07201 3.59082 5.60922 3.24451 6.20561 3.0262C6.6891 2.83973 7.41979 2.616 8.75737 2.55732C10.2079 2.49342 10.6431 2.4774 14.3121 2.4774C17.9868 2.4774 18.4217 2.49342 19.867 2.55732C21.2101 2.616 21.9352 2.83973 22.4187 3.0262C23.0149 3.24451 23.5576 3.59082 23.998 4.04367C24.4547 4.48591 24.8039 5.0187 25.0242 5.61016C25.2123 6.08966 25.4379 6.81411 25.497 8.14084C25.5614 9.57933 25.5776 10.0108 25.5776 13.6496C25.5776 17.2886 25.5614 17.7147 25.497 19.1532Z" fill="#2B2B2B"/>
<path d="M14.301 6.63306C10.4009 6.63306 7.23657 9.77102 7.23657 13.6391C7.23657 17.5071 10.4009 20.6451 14.301 20.6451C18.2011 20.6451 21.3653 17.5071 21.3653 13.6391C21.3653 9.77102 18.2011 6.63306 14.301 6.63306ZM14.301 18.1837C11.7708 18.1837 9.71846 16.1485 9.71846 13.6391C9.71846 11.1296 11.7708 9.09443 14.301 9.09443C16.8314 9.09443 18.8834 11.1296 18.8834 13.6391C18.8834 16.1485 16.8314 18.1837 14.301 18.1837Z" fill="#2B2B2B"/>
<path d="M23.2942 6.35605C23.2942 7.25926 22.5557 7.99163 21.6448 7.99163C20.734 7.99163 19.9955 7.25926 19.9955 6.35605C19.9955 5.45261 20.734 4.72046 21.6448 4.72046C22.5557 4.72046 23.2942 5.45261 23.2942 6.35605Z" fill="#2B2B2B"/>
</g>
<defs>
<clipPath id="clip0_8_47">
<rect width="28.875" height="27.2727" fill="#2B2B2B" transform="translate(0.5)"/>
</clipPath>
</defs>
</svg>
