<svg width="28" height="28" viewBox="0 0 28 28" fill="none" xmlns="http://www.w3.org/2000/svg">
<g clip-path="url(#clip0_8_51)">
<path d="M27.8681 27.2728L27.875 27.2717V17.2695C27.875 12.3762 26.8128 8.60693 21.0446 8.60693C18.2717 8.60693 16.4109 10.116 15.6512 11.5467H15.571V9.06375H10.1019V27.2717H15.7967V18.2558C15.7967 15.882 16.2504 13.5865 19.2148 13.5865C22.1354 13.5865 22.179 16.2956 22.179 18.4081V27.2728H27.8681Z" fill="#2B2B2B"/>
<path d="M0.828735 9.0647H6.5304V27.2727H0.828735V9.0647Z" fill="#2B2B2B"/>
<path d="M3.6773 0C1.85427 0 0.375 1.46704 0.375 3.275C0.375 5.08295 1.85427 6.58068 3.6773 6.58068C5.50031 6.58068 6.97958 5.08295 6.97958 3.275C6.97844 1.46704 5.49917 0 3.6773 0Z" fill="#2B2B2B"/>
</g>
<defs>
<clipPath id="clip0_8_51">
<rect width="27.5" height="27.2727" fill="#2B2B2B" transform="translate(0.375)"/>
</clipPath>
</defs>
</svg>
