<?xml version="1.0" standalone="no"?>
<!DOCTYPE svg PUBLIC "-//W3C//DTD SVG 20010904//EN"
 "http://www.w3.org/TR/2001/REC-SVG-20010904/DTD/svg10.dtd">
<svg version="1.0" xmlns="http://www.w3.org/2000/svg"
 width="96.000000pt" height="96.000000pt" viewBox="0 0 96.000000 96.000000"
 preserveAspectRatio="xMidYMid meet">

<g transform="translate(0.000000,96.000000) scale(0.100000,-0.100000)"
fill="#000000" stroke="none">
<path d="M324 871 c-49 -12 -134 -63 -160 -94 -14 -17 -37 -53 -52 -81 -22
-43 -26 -64 -26 -136 -1 -78 2 -90 33 -148 38 -70 70 -100 145 -140 43 -22 64
-26 136 -26 86 0 143 18 192 62 23 20 48 1 48 -37 0 -19 22 -48 81 -108 l80
-81 39 41 39 42 -77 78 c-63 64 -82 77 -108 77 -42 0 -63 24 -42 48 45 50 63
106 62 192 0 72 -4 93 -26 136 -39 75 -70 107 -137 143 -65 34 -164 49 -227
32z m150 -83 c86 -26 166 -136 166 -228 0 -124 -116 -240 -240 -240 -124 0
-240 116 -240 240 0 63 23 114 75 165 70 71 145 90 239 63z"/>
<path d="M250 625 c-15 -18 -10 -45 13 -59 34 -22 73 27 47 59 -16 19 -44 19
-60 0z"/>
<path d="M490 625 c-15 -18 -10 -45 13 -59 34 -22 73 27 47 59 -16 19 -44 19
-60 0z"/>
<path d="M340 513 c-8 -3 -30 -12 -48 -19 l-33 -13 23 -34 c21 -34 23 -34 55
-21 18 8 46 14 63 14 17 0 45 -6 63 -14 32 -13 34 -13 55 21 l23 34 -38 16
c-40 17 -137 27 -163 16z"/>
</g>
</svg>
