<svg width="41" height="42" viewBox="0 0 41 42" fill="none" xmlns="http://www.w3.org/2000/svg">
<path d="M30.0625 38.625H10.0208C9.35641 38.625 8.7192 38.3537 8.24938 37.8708C7.77957 37.3879 7.51563 36.7329 7.51562 36.05V5.15001C7.51562 4.46708 7.77957 3.81212 8.24938 3.32921C8.7192 2.84631 9.35641 2.57501 10.0208 2.57501H30.0625C30.7269 2.57501 31.3641 2.84631 31.8339 3.32921C32.3038 3.81212 32.5677 4.46708 32.5677 5.15001V36.05C32.5677 36.7329 32.3038 37.3879 31.8339 37.8708C31.3641 38.3537 30.7269 38.625 30.0625 38.625ZM10.0208 5.15001V36.05H30.0625V5.15001H10.0208Z" fill="#2B2B2B"/>
<path d="M22.5469 34.7625H17.5365C17.2043 34.7625 16.8857 34.6269 16.6508 34.3854C16.4159 34.1439 16.2839 33.8165 16.2839 33.475C16.2839 33.1335 16.4159 32.8061 16.6508 32.5646C16.8857 32.3231 17.2043 32.1875 17.5365 32.1875H22.5469C22.8792 32.1875 23.1978 32.3231 23.4327 32.5646C23.6676 32.8061 23.7995 33.1335 23.7995 33.475C23.7995 33.8165 23.6676 34.1439 23.4327 34.3854C23.1978 34.6269 22.8792 34.7625 22.5469 34.7625Z" fill="#2B2B2B"/>
<path d="M27.5573 30.9H12.526C12.1938 30.9 11.8752 30.7644 11.6403 30.5229C11.4054 30.2815 11.2734 29.954 11.2734 29.6125C11.2734 29.271 11.4054 28.9436 11.6403 28.7021C11.8752 28.4607 12.1938 28.325 12.526 28.325H27.5573C27.8895 28.325 28.2081 28.4607 28.443 28.7021C28.6779 28.9436 28.8099 29.271 28.8099 29.6125C28.8099 29.954 28.6779 30.2815 28.443 30.5229C28.2081 30.7644 27.8895 30.9 27.5573 30.9Z" fill="#2B2B2B"/>
</svg>
