<svg width="32" height="32" viewBox="0 0 32 32" fill="none" xmlns="http://www.w3.org/2000/svg">
<path d="M16.1303 2.68408C16.9883 2.68408 18.343 5.66435 20.6008 10.2251C20.9168 10.8121 20.8265 10.6766 21.9102 10.8572C26.3355 11.4894 29.7673 11.9861 29.9479 12.7989C29.9931 13.0247 29.8576 13.3408 29.5867 13.7472C28.9545 14.6503 27.5095 16.0501 25.7485 17.7209C23.3552 20.0238 23.6713 19.211 24.0326 21.3785C24.7551 25.6683 25.2518 28.5131 24.6196 28.9646C24.5293 29.0098 24.439 29.0549 24.3035 29.0549C23.3552 29.0549 21.3232 27.9712 18.2527 26.3456C15.6336 24.9458 16.5819 24.9458 14.008 26.3456C10.9375 27.9712 8.90547 29.0549 7.9572 29.0549C7.82173 29.0549 7.73142 29.0549 7.64111 28.9646C7.00893 28.5131 7.50563 25.7134 8.22812 21.3785C8.58937 19.211 8.95062 20.069 6.51222 17.7209C4.75115 16.005 3.35133 14.6503 2.674 13.7472C2.40306 13.3408 2.2676 13.0247 2.31276 12.7989C2.49338 11.9861 5.9252 11.4894 10.3504 10.8572C11.6148 10.6766 11.4342 10.6315 11.6599 10.2251C13.9177 5.66435 15.2724 2.68408 16.1303 2.68408Z" fill="#FFD140"/>
<path d="M23.0391 24.9006C13.4662 20.4753 18.7042 20.5205 9.22154 24.9006C10.3956 14.3793 12.0663 19.4819 4.93176 11.7603C15.2724 9.50253 10.802 13.0698 16.1755 3.54199C21.5038 13.0247 17.0334 9.50253 27.4192 11.7603C20.1492 19.5722 21.8651 14.3793 23.0391 24.9006Z" fill="#FFE094"/>
<path d="M29.5867 13.7472C29.0449 13.4763 28.2321 13.2505 27.058 13.0247C25.613 12.7538 23.6713 12.4828 21.1426 12.1216C18.5236 6.79324 17.3496 4.08391 16.1755 4.03876C15.0015 3.9936 13.8274 6.65778 11.1181 12.1216C8.63456 12.4828 6.69287 12.7538 5.24789 13.0247C4.07385 13.2505 3.26104 13.4311 2.67402 13.702C2.35793 13.2505 2.26763 12.9344 2.31278 12.7086C2.53856 11.9861 5.29305 11.6249 9.08611 11.083C9.71829 10.9927 10.4408 10.9024 11.1633 10.7669C11.2987 10.7669 11.4342 10.6766 11.5245 10.5412L12.2018 9.14134C14.0984 5.25796 15.3627 2.72925 16.1304 2.72925C16.898 2.72925 18.0721 5.21281 19.7428 8.64463C20.0137 9.23165 20.3298 9.86382 20.6911 10.5412C20.7814 10.6766 20.8717 10.7669 21.0523 10.7669L21.8651 10.9024C26.6065 11.5797 29.7222 12.0313 29.9028 12.8441C29.9931 13.0247 29.8577 13.3408 29.5867 13.7472Z" fill="#FFF9C0"/>
<path d="M16.1303 2.68408C16.9883 2.68408 18.343 5.66435 20.6008 10.2251C20.9168 10.8121 20.8265 10.6766 21.9102 10.8572C26.3355 11.4894 29.7673 11.9861 29.9479 12.7989C29.9931 13.0247 29.8576 13.3408 29.5867 13.7472C28.9545 14.6503 27.5095 16.0501 25.7485 17.7209C23.3552 20.0238 23.6713 19.211 24.0326 21.3785C24.7551 25.6683 25.2518 28.5131 24.6196 28.9646C24.5293 29.0098 24.439 29.0549 24.3035 29.0549C23.3552 29.0549 21.3232 27.9712 18.2527 26.3456C15.6336 24.9458 16.5819 24.9458 14.008 26.3456C10.9375 27.9712 8.90547 29.0549 7.9572 29.0549C7.82173 29.0549 7.73142 29.0549 7.64111 28.9646C7.00893 28.5131 7.50563 25.7134 8.22812 21.3785C8.58937 19.211 8.95062 20.069 6.51222 17.7209C4.75115 16.005 3.35133 14.6503 2.674 13.7472C2.40306 13.3408 2.2676 13.0247 2.31276 12.7989C2.49338 11.9861 5.9252 11.4894 10.3504 10.8572C11.6148 10.6766 11.4342 10.6315 11.6599 10.2251C13.9177 5.66435 15.2724 2.68408 16.1303 2.68408V2.68408Z" stroke="#675252" stroke-width="2.13333" stroke-miterlimit="10" stroke-linecap="round" stroke-linejoin="round"/>
</svg>
