<svg width="29" height="23" viewBox="0 0 29 23" fill="none" xmlns="http://www.w3.org/2000/svg">
<path d="M29 2.682C27.9373 3.12308 26.797 3.42221 25.5988 3.55576C26.8221 2.8696 27.7586 1.78124 28.2025 0.488363C27.0549 1.12379 25.7883 1.5852 24.4386 1.83533C23.3578 0.755403 21.8204 0.0827637 20.1153 0.0827637C16.844 0.0827637 14.1917 2.5671 14.1917 5.62943C14.1917 6.06374 14.2439 6.48795 14.345 6.89358C9.42276 6.66202 5.05806 4.45317 2.13682 1.09674C1.62617 1.91474 1.33567 2.86788 1.33567 3.8853C1.33567 5.81026 2.38221 7.50873 3.97005 8.50244C2.9993 8.47204 2.08629 8.2219 1.28698 7.80615V7.87544C1.28698 10.5626 3.32952 12.8052 6.03783 13.3157C5.54162 13.4408 5.01838 13.51 4.47707 13.51C4.09457 13.51 3.72467 13.4745 3.36198 13.4069C4.11617 15.6124 6.30308 17.2162 8.89414 17.2602C6.86783 18.7474 4.31288 19.6314 1.5378 19.6314C1.05967 19.6314 0.588699 19.6042 0.125 19.5552C2.74673 21.132 5.85924 22.0515 9.2045 22.0515C20.101 22.0515 26.0571 13.5979 26.0571 6.26658L26.0373 5.54834C27.2011 4.77087 28.2079 3.79405 29 2.682Z" fill="#2B2B2B"/>
</svg>
