<svg width="33" height="23" viewBox="0 0 33 23" fill="none" xmlns="http://www.w3.org/2000/svg">
<path fill-rule="evenodd" clip-rule="evenodd" d="M29.4118 1.08412C30.8251 1.45651 31.9397 2.54654 32.3202 3.92939C33.0272 6.45523 33 11.7202 33 11.7202C33 11.7202 33 16.9583 32.3205 19.4844C31.9397 20.867 30.8254 21.9572 29.4118 22.3294C26.8294 22.9944 16.5001 22.9944 16.5001 22.9944C16.5001 22.9944 6.19767 22.9944 3.58834 22.3031C2.17466 21.9308 1.06032 20.8403 0.679647 19.4578C0.00012207 16.9583 0.00012207 11.6936 0.00012207 11.6936C0.00012207 11.6936 0.00012207 6.45523 0.679647 3.92939C1.06007 2.54678 2.20184 1.4299 3.58809 1.05777C6.17048 0.392822 16.4998 0.392822 16.4998 0.392822C16.4998 0.392822 26.8294 0.392822 29.4118 1.08412ZM21.8006 11.6936L13.211 16.5331V6.85422L21.8006 11.6936Z" fill="#2B2B2B"/>
</svg>
