<svg width="41" height="42" fill="none" xmlns="http://www.w3.org/2000/svg"><path d="M35.073 31.544H12.526a2.471 2.471 0 01-1.771-.755 2.612 2.612 0 01-.734-1.82V12.23c0-.683.264-1.338.734-1.82a2.471 2.471 0 011.771-.755h22.547a2.47 2.47 0 011.771.755c.47.482.734 1.137.734 1.82v16.74c0 .683-.264 1.338-.734 1.82a2.47 2.47 0 01-1.771.755zM12.526 12.23v16.74h22.547V12.23H12.526z" fill="#2B2B2B"/><path d="M23.8 22.531a1.224 1.224 0 01-.664-.193l-10.021-6.437a1.27 1.27 0 01-.357-.345 1.307 1.307 0 01-.217-.961c.027-.167.086-.327.173-.471a1.24 1.24 0 011.27-.59c.163.028.319.088.459.178l9.356 6.012 9.357-6.012c.283-.181.624-.24.948-.162.324.077.605.284.781.574.176.29.233.64.158.974a1.288 1.288 0 01-.559.803l-10.02 6.437c-.2.127-.43.194-.665.193zm-16.284-.644H3.758c-.332 0-.651-.135-.886-.377a1.306 1.306 0 01-.367-.91c0-.341.132-.669.367-.91.235-.242.554-.378.886-.378h3.758c.332 0 .65.136.885.378.235.241.367.569.367.91 0 .341-.132.669-.367.91a1.235 1.235 0 01-.885.377zm0-7.725H3.758c-.332 0-.651-.135-.886-.377a1.306 1.306 0 01-.367-.91c0-.341.132-.669.367-.91.235-.242.554-.377.886-.377h3.758c.332 0 .65.135.885.377.235.241.367.569.367.91 0 .341-.132.669-.367.91a1.236 1.236 0 01-.885.377zm0 15.451H3.758c-.332 0-.651-.136-.886-.378a1.306 1.306 0 01-.367-.91c0-.341.132-.669.367-.91.235-.242.554-.377.886-.377h3.758c.332 0 .65.135.885.377.235.241.367.569.367.91 0 .341-.132.669-.367.91a1.235 1.235 0 01-.885.378z" fill="#2B2B2B"/></svg>