<svg width="17" height="30" fill="none" xmlns="http://www.w3.org/2000/svg"><g clip-path="url(#clip0_8_45)"><path d="M15.899.006L12.08 0C7.79 0 5.017 2.898 5.017 7.383v3.404h-3.84c-.33 0-.6.274-.6.612v4.932c0 .338.27.612.6.612h3.84v12.445c0 .338.27.612.6.612h5.01c.332 0 .6-.274.6-.612V16.943h4.49c.332 0 .6-.274.6-.612l.003-4.932a.619.619 0 00-.176-.432.595.595 0 00-.425-.18h-4.491V7.901c0-1.387.324-2.09 2.098-2.09l2.572-.002c.332 0 .6-.274.6-.611V.618a.606.606 0 00-.6-.612z" fill="#2B2B2B"/></g><defs><clipPath id="clip0_8_45"><path fill="#2B2B2B" d="M0 0h16.5v30H0z"/></clipPath></defs></svg>