<svg width="24" height="32" fill="none" xmlns="http://www.w3.org/2000/svg"><path d="M24 20.61C24 26.9 18.625 32 12 32S0 26.9 0 20.61C0 13.895 7.89 3.77 10.875.185A.5.5 0 0111.78.5c-.255 3-.08 9.42 5.29 12.62a.5.5 0 00.685-.12 6.57 6.57 0 001.125-3.345.5.5 0 01.945-.2C22.11 13.215 24 17.32 24 20.61z" fill="#FF7F00"/><path d="M4.5 24.88C4.5 28.815 7.86 32 12 32c4.14 0 7.5-3.185 7.5-7.12s-4.345-9.755-6.42-12.305a.5.5 0 00-.91.315c.075 2-.275 5.385-3.175 7.225a.5.5 0 01-.705-.16 4.03 4.03 0 01-.5-1.4.5.5 0 00-.95-.16C5.525 20.61 4.5 22.965 4.5 24.88z" fill="#FFDA00"/><path d="M16.125 28.085A4 4 0 0112 32a4 4 0 01-4.125-3.915c0-1.935 1.9-4.685 3.125-6.255a.5.5 0 01.91.265 4.17 4.17 0 001.5 3.19.5.5 0 00.795-.205.5.5 0 01.92-.08 7.035 7.035 0 011 3.085z" fill="#fff"/></svg>