<svg width="30" height="28" fill="none" xmlns="http://www.w3.org/2000/svg"><g clip-path="url(#clip0_8_47)" fill="#2B2B2B"><path d="M27.973 8.018c-.064-1.449-.3-2.445-.639-3.308a6.65 6.65 0 00-1.59-2.42A6.772 6.772 0 0023.31.72c-.875-.336-1.874-.57-3.335-.635C18.502.016 18.034 0 14.3 0c-3.733 0-4.2.016-5.667.08-1.461.064-2.466.298-3.336.634a6.715 6.715 0 00-2.44 1.577 6.71 6.71 0 00-1.584 2.413c-.339.869-.575 1.86-.64 3.309C.565 9.473.55 9.936.55 13.639c0 3.703.016 4.166.08 5.62.065 1.45.301 2.446.64 3.31a6.72 6.72 0 001.59 2.418 6.774 6.774 0 002.433 1.572c.876.335 1.875.57 3.337.634 1.466.064 1.934.08 5.667.08 3.734 0 4.201-.016 5.668-.08 1.46-.064 2.465-.299 3.336-.634a7.006 7.006 0 004.024-3.99c.338-.869.574-1.86.639-3.31.064-1.454.08-1.917.08-5.62 0-3.703-.005-4.166-.07-5.62zm-2.476 11.135c-.06 1.332-.285 2.051-.473 2.53a4.543 4.543 0 01-2.61 2.59c-.484.187-1.215.41-2.553.469-1.45.064-1.885.08-5.554.08-3.67 0-4.11-.016-5.555-.08-1.343-.059-2.068-.282-2.552-.469a4.235 4.235 0 01-1.58-1.017 4.236 4.236 0 01-1.025-1.567c-.188-.48-.414-1.204-.473-2.53-.065-1.439-.08-1.87-.08-5.51 0-3.638.015-4.075.08-5.508.06-1.332.285-2.051.473-2.53.22-.592.57-1.13 1.031-1.567.446-.453.983-.8 1.58-1.018.483-.186 1.214-.41 2.551-.469 1.45-.064 1.886-.08 5.555-.08 3.675 0 4.11.016 5.555.08 1.343.059 2.068.283 2.552.47a4.231 4.231 0 011.579 1.017c.457.442.806.975 1.026 1.566.188.48.414 1.204.473 2.53.064 1.44.08 1.87.08 5.51 0 3.639-.016 4.065-.08 5.503z"/><path d="M14.301 6.633c-3.9 0-7.064 3.138-7.064 7.006 0 3.868 3.164 7.006 7.064 7.006s7.064-3.138 7.064-7.006c0-3.868-3.164-7.006-7.064-7.006zm0 11.55c-2.53 0-4.583-2.035-4.583-4.544 0-2.51 2.053-4.545 4.583-4.545 2.53 0 4.582 2.036 4.582 4.545 0 2.51-2.052 4.545-4.582 4.545zm8.993-11.827c0 .903-.738 1.636-1.65 1.636-.91 0-1.648-.733-1.648-1.636 0-.903.738-1.636 1.649-1.636.91 0 1.65.733 1.65 1.636z"/></g><defs><clipPath id="clip0_8_47"><path fill="#2B2B2B" transform="translate(.5)" d="M0 0h28.875v27.273H0z"/></clipPath></defs></svg>