<svg width="28" height="28" fill="none" xmlns="http://www.w3.org/2000/svg"><g clip-path="url(#clip0_8_51)" fill="#2B2B2B"><path d="M27.868 27.273l.007-.001V17.27c0-4.894-1.062-8.663-6.83-8.663-2.773 0-4.634 1.509-5.394 2.94h-.08V9.064h-5.47v18.208h5.696v-9.016c0-2.374.453-4.67 3.418-4.67 2.92 0 2.964 2.71 2.964 4.822v8.865h5.69zM.829 9.065H6.53v18.208H.83V9.065zM3.677 0C1.854 0 .375 1.467.375 3.275a3.316 3.316 0 003.302 3.306A3.316 3.316 0 006.98 3.275C6.978 1.467 5.5 0 3.677 0z"/></g><defs><clipPath id="clip0_8_51"><path fill="#2B2B2B" transform="translate(.375)" d="M0 0h27.5v27.273H0z"/></clipPath></defs></svg>