<svg version="1.0" xmlns="http://www.w3.org/2000/svg" width="128" height="128" viewBox="0 0 96 96"><path d="M32.4 8.9c-4.9 1.2-13.4 6.3-16 9.4-1.4 1.7-3.7 5.3-5.2 8.1C9 30.7 8.6 32.8 8.6 40c-.1 7.8.2 9 3.3 14.8 3.8 7 7 10 14.5 14 4.3 2.2 6.4 2.6 13.6 2.6 8.6 0 14.3-1.8 19.2-6.2 2.3-2 4.8-.1 4.8 3.7 0 1.9 2.2 4.8 8.1 10.8l8 8.1 3.9-4.1 3.9-4.2-7.7-7.8C73.9 65.3 72 64 69.4 64c-4.2 0-6.3-2.4-4.2-4.8 4.5-5 6.3-10.6 6.2-19.2 0-7.2-.4-9.3-2.6-13.6-3.9-7.5-7-10.7-13.7-14.3-6.5-3.4-16.4-4.9-22.7-3.2zm15 8.3C56 19.8 64 30.8 64 40c0 12.4-11.6 24-24 24S16 52.4 16 40c0-6.3 2.3-11.4 7.5-16.5 7-7.1 14.5-9 23.9-6.3z"/><path d="M25 33.5c-1.5 1.8-1 4.5 1.3 5.9 3.4 2.2 7.3-2.7 4.7-5.9-1.6-1.9-4.4-1.9-6 0zm24 0c-1.5 1.8-1 4.5 1.3 5.9 3.4 2.2 7.3-2.7 4.7-5.9-1.6-1.9-4.4-1.9-6 0zM34 44.7c-.8.3-3 1.2-4.8 1.9l-3.3 1.3 2.3 3.4c2.1 3.4 2.3 3.4 5.5 2.1 1.8-.8 4.6-1.4 6.3-1.4 1.7 0 4.5.6 6.3 1.4 3.2 1.3 3.4 1.3 5.5-2.1l2.3-3.4-3.8-1.6c-4-1.7-13.7-2.7-16.3-1.6z"/></svg>