<svg width="41" height="42" fill="none" xmlns="http://www.w3.org/2000/svg"><path d="M30.063 38.625H10.02a2.471 2.471 0 01-1.772-.754 2.612 2.612 0 01-.733-1.821V5.15c0-.683.264-1.338.733-1.82a2.471 2.471 0 011.772-.755h20.041c.665 0 1.302.271 1.772.754s.734 1.138.734 1.821v30.9c0 .683-.264 1.338-.734 1.82a2.471 2.471 0 01-1.771.755zM10.02 5.15v30.9h20.041V5.15h-20.04z" fill="#2B2B2B"/><path d="M22.547 34.763h-5.01c-.333 0-.651-.136-.886-.378a1.306 1.306 0 01-.367-.91c0-.342.132-.669.367-.91.235-.242.553-.377.886-.377h5.01c.332 0 .65.135.886.377.235.241.366.569.366.91 0 .341-.131.669-.366.91a1.235 1.235 0 01-.886.378zm5.01-3.863H12.526a1.24 1.24 0 01-.886-.377 1.306 1.306 0 01-.367-.91c0-.342.132-.67.367-.91.235-.242.554-.378.886-.378h15.031c.333 0 .651.136.886.377.235.242.367.569.367.91 0 .342-.132.67-.367.91a1.235 1.235 0 01-.886.378z" fill="#2B2B2B"/></svg>