<svg width="32" height="32" fill="none" xmlns="http://www.w3.org/2000/svg"><path d="M16.13 2.684c.858 0 2.213 2.98 4.47 7.541.317.587.226.452 1.31.632 4.425.632 7.857 1.13 8.038 1.942.045.226-.09.542-.361.948-.633.903-2.078 2.303-3.838 3.974-2.394 2.303-2.078 1.49-1.716 3.657.722 4.29 1.219 7.135.587 7.587a.652.652 0 01-.317.09c-.948 0-2.98-1.084-6.05-2.71-2.62-1.4-1.671-1.4-4.245 0-3.07 1.626-5.103 2.71-6.05 2.71-.136 0-.227 0-.317-.09-.632-.452-.135-3.252.587-7.587.361-2.167.723-1.309-1.716-3.657-1.76-1.716-3.16-3.07-3.838-3.974-.27-.406-.406-.722-.361-.948.18-.813 3.612-1.31 8.037-1.942 1.265-.18 1.084-.225 1.31-.632 2.258-4.56 3.612-7.54 4.47-7.54z" fill="#FFD140"/><path d="M23.04 24.9c-9.574-4.425-4.336-4.38-13.818 0 1.174-10.52 2.844-5.418-4.29-13.14 10.34-2.257 5.87 1.31 11.243-8.218 5.329 9.483.858 5.96 11.244 8.218-7.27 7.812-5.554 2.62-4.38 13.14z" fill="#FFE094"/><path d="M29.587 13.747c-.542-.27-1.355-.496-2.529-.722-1.445-.271-3.387-.542-5.915-.903-2.62-5.329-3.793-8.038-4.968-8.083-1.174-.045-2.348 2.619-5.057 8.083-2.483.36-4.425.632-5.87.903-1.174.226-1.987.406-2.574.677-.316-.451-.406-.768-.361-.993.226-.723 2.98-1.084 6.773-1.626.632-.09 1.355-.18 2.077-.316.136 0 .271-.09.361-.226l.678-1.4c1.896-3.883 3.16-6.412 3.928-6.412.768 0 1.942 2.484 3.613 5.916.27.587.587 1.219.948 1.896.09.136.18.226.361.226l.813.135c4.742.678 7.857 1.13 8.038 1.942.09.18-.045.497-.316.903z" fill="#FFF9C0"/><path d="M16.13 2.684c.858 0 2.213 2.98 4.47 7.541.317.587.226.452 1.31.632 4.425.632 7.857 1.13 8.038 1.942.045.226-.09.542-.361.948-.633.903-2.078 2.303-3.838 3.974-2.394 2.303-2.078 1.49-1.716 3.657.722 4.29 1.219 7.135.587 7.587a.652.652 0 01-.317.09c-.948 0-2.98-1.084-6.05-2.71-2.62-1.4-1.671-1.4-4.245 0-3.07 1.626-5.103 2.71-6.05 2.71-.136 0-.227 0-.317-.09-.632-.452-.135-3.252.587-7.587.361-2.167.723-1.309-1.716-3.657-1.76-1.716-3.16-3.07-3.838-3.974-.27-.406-.406-.722-.361-.948.18-.813 3.612-1.31 8.037-1.942 1.265-.18 1.084-.225 1.31-.632 2.258-4.56 3.612-7.54 4.47-7.54v0z" stroke="#675252" stroke-width="2.133" stroke-miterlimit="10" stroke-linecap="round" stroke-linejoin="round"/></svg>