<svg width="29" height="23" fill="none" xmlns="http://www.w3.org/2000/svg"><path d="M29 2.682a12.48 12.48 0 01-3.401.874c1.223-.686 2.16-1.775 2.604-3.068a12.443 12.443 0 01-3.764 1.347C23.358.755 21.82.083 20.115.083c-3.271 0-5.923 2.484-5.923 5.546 0 .435.052.859.153 1.265-4.922-.232-9.287-2.44-12.208-5.797a5.242 5.242 0 00-.801 2.788c0 1.925 1.046 3.624 2.634 4.617a6.232 6.232 0 01-2.683-.696v.07c0 2.687 2.043 4.93 4.75 5.44a6.38 6.38 0 01-1.56.194 6.03 6.03 0 01-1.115-.103c.754 2.205 2.941 3.81 5.532 3.853-2.026 1.487-4.581 2.371-7.356 2.371-.478 0-.95-.027-1.413-.076a17.575 17.575 0 009.08 2.497c10.896 0 16.852-8.454 16.852-15.785l-.02-.719A11.447 11.447 0 0029 2.682z" fill="#2B2B2B"/></svg>