<svg width="33" height="23" fill="none" xmlns="http://www.w3.org/2000/svg"><path fill-rule="evenodd" clip-rule="evenodd" d="M29.412 1.084c1.413.373 2.528 1.463 2.908 2.845.707 2.526.68 7.791.68 7.791s0 5.238-.68 7.764c-.38 1.383-1.495 2.473-2.908 2.845-2.583.665-12.912.665-12.912.665s-10.302 0-12.912-.69C2.175 21.93 1.06 20.84.68 19.457 0 16.958 0 11.694 0 11.694s0-5.239.68-7.765c.38-1.382 1.522-2.5 2.908-2.871C6.17.393 16.5.393 16.5.393s10.33 0 12.912.691zM21.8 11.694l-8.59 4.84v-9.68l8.59 4.84z" fill="#2B2B2B"/></svg>